# File created by Blade
# Date/Time:  Thu Jan 22 16:21:39 2015
# Frame Rate: 120.000 fps
#------------------------------------------------------
:FULLY-SPECIFIED
:DEGREES
607
root 19.828542 34.659734 -10.398288 -5.046009 9.824214 -7.996969
RightUpLeg 14.915857 0.565335 29.165316
RightLeg -7.025684 -0.000000 0.000000
RightFoot -8.707889 -9.903081 4.072890
RightToeBase 6.015009 -0.000000 -0.000000
LeftUpLeg -21.823221 -22.493549 -2.966321
LeftLeg 12.001530 -0.000000 -0.000000
LeftFoot 12.519310 9.967215 -8.637669
LeftToeBase 11.575765 -0.000000 -0.000000
Spine 20.417007 2.529011 -47.677114
RightShoulder -10.444266 4.809330 -46.936205
RightArm 60.879501 67.504419 10.050250
RightForeArm -16.726664 -0.000000 24.694226
RightHand 21.730731 -0.000000 -48.901266
RightHandThumb1 -24.326973 -0.000000 -32.862282
LeftShoulder -4.540946 35.954742 1.642097
LeftArm 37.075893 -11.515507 -61.685318
LeftForeArm 33.896810 -0.000000 9.692683
LeftHand -19.179730 0.000000 -9.792357
LeftHandThumb1 -26.253704 0.000000 33.147579
Head 34.432119 59.345330 -19.706043
608
root 19.838061 34.662898 -10.398118 -5.039796 9.841911 -7.990261
RightUpLeg 14.903685 0.565855 29.149344
RightLeg -7.017296 -0.000000 0.000000
RightFoot -8.708061 -9.935602 4.054760
RightToeBase 5.886503 -0.000000 -0.000000
LeftUpLeg -21.755610 -22.477329 -2.990499
LeftLeg 11.868899 -0.000000 -0.000000
LeftFoot 12.584593 9.932562 -8.670789
LeftToeBase 11.635933 -0.000000 -0.000000
Spine 20.375711 2.531178 -47.650439
RightShoulder -10.436234 4.817274 -46.932160
RightArm 60.856574 67.468556 10.023884
RightForeArm -16.679416 -0.000000 24.685977
RightHand 21.693224 -0.000000 -49.028983
RightHandThumb1 -24.326973 -0.000000 -32.862282
LeftShoulder -4.531180 35.947082 1.634330
LeftArm 37.078369 -11.457907 -61.677977
LeftForeArm 33.846697 0.000000 9.662958
LeftHand -19.148652 -0.000000 -9.899623
LeftHandThumb1 -26.253704 0.000000 33.147579
Head 34.409023 59.361811 -19.692720
609
root 19.847935 34.665149 -10.400365 -5.043002 9.891915 -7.989899
RightUpLeg 14.890574 0.558571 29.134772
RightLeg -7.022008 -0.000000 0.000000
RightFoot -8.728904 -9.971283 4.074008
RightToeBase 6.000132 -0.000000 -0.000000
LeftUpLeg -21.688644 -22.473687 -3.020424
LeftLeg 11.744404 -0.000000 -0.000000
LeftFoot 12.659510 9.890178 -8.704791
LeftToeBase 11.723163 -0.000000 -0.000000
Spine 20.375732 2.507023 -47.607141
RightShoulder -10.413133 4.806923 -46.948601
RightArm 60.951887 67.501103 10.156424
RightForeArm -16.762986 -0.000000 24.716631
RightHand 21.613032 -0.000000 -48.889994
RightHandThumb1 -24.326973 -0.000000 -32.862282
LeftShoulder -4.517547 35.937380 1.610060
LeftArm 37.078544 -11.426713 -61.671000
LeftForeArm 33.805734 -0.000000 9.645073
LeftHand -19.126894 -0.000000 -9.958829
LeftHandThumb1 -26.253704 0.000000 33.147579
Head 34.474605 59.429851 -19.549231
610
root 19.858566 34.668494 -10.398262 -5.055371 9.915052 -7.983962
RightUpLeg 14.906644 0.551621 29.118602
RightLeg -7.035862 -0.000000 0.000000
RightFoot -8.718310 -9.987470 4.074276
RightToeBase 5.937221 -0.000000 -0.000000
LeftUpLeg -21.593314 -22.424049 -3.066708
LeftLeg 11.611468 -0.000000 -0.000000
LeftFoot 12.718959 9.825611 -8.738918
LeftToeBase 11.778166 -0.000000 -0.000000
Spine 20.343048 2.519323 -47.588794
RightShoulder -10.384505 4.816063 -46.930921
RightArm 60.961938 67.487070 10.179434
RightForeArm -16.611495 -0.000000 24.745910
RightHand 21.717272 -0.000000 -48.832519
RightHandThumb1 -24.326973 -0.000000 -32.862282
LeftShoulder -4.485435 35.959063 1.624003
LeftArm 37.079553 -11.410916 -61.693722
LeftForeArm 33.781258 -0.000000 9.635958
LeftHand -19.070883 0.000000 -9.938037
LeftHandThumb1 -26.253704 0.000000 33.147579
Head 34.499611 59.417199 -19.479789
611
root 19.868945 34.669519 -10.396996 -5.082760 9.965540 -7.982360
RightUpLeg 14.930638 0.520748 29.103936
RightLeg -7.063208 -0.000000 0.000000
RightFoot -8.698648 -10.020444 4.042580
RightToeBase 5.898681 -0.000000 -0.000000
LeftUpLeg -21.488958 -22.386546 -3.122393
LeftLeg 11.488443 -0.000000 -0.000000
LeftFoot 12.780308 9.753517 -8.726114
LeftToeBase 11.831951 -0.000000 -0.000000
Spine 20.374415 2.507093 -47.541203
RightShoulder -10.404996 4.836680 -46.973030
RightArm 61.030018 67.476860 10.269257
RightForeArm -16.516445 -0.000000 24.751581
RightHand 21.816246 -0.000000 -48.799916
RightHandThumb1 -24.326973 -0.000000 -32.862282
LeftShoulder -4.502615 35.946083 1.579922
LeftArm 37.078789 -11.356009 -61.676870
LeftForeArm 33.788372 -0.000000 9.655569
LeftHand -19.343461 -0.000000 -9.852282
LeftHandThumb1 -26.253704 0.000000 33.147579
Head 34.546638 59.486247 -19.359387
612
root 19.882454 34.672121 -10.396798 -5.102299 10.021029 -7.972275
RightUpLeg 14.942168 0.487824 29.075237
RightLeg -7.078085 -0.000000 0.000000
RightFoot -8.716526 -10.053709 4.052869
RightToeBase 5.971372 -0.000000 -0.000000
LeftUpLeg -21.396396 -22.342713 -3.186182
LeftLeg 11.371012 -0.000000 -0.000000
LeftFoot 12.861101 9.663917 -8.767027
LeftToeBase 11.877497 -0.000000 -0.000000
Spine 20.381462 2.494898 -47.521921
RightShoulder -10.365553 4.851282 -46.960514
RightArm 60.917205 67.455135 10.141432
RightForeArm -16.525177 0.000000 24.746695
RightHand 21.685051 0.000000 -48.644079
RightHandThumb1 -24.326973 -0.000000 -32.862282
LeftShoulder -4.488842 35.965328 1.570089
LeftArm 37.092081 -11.360809 -61.715445
LeftForeArm 33.821327 -0.000000 9.654322
LeftHand -19.350436 0.000000 -9.915947
LeftHandThumb1 -26.253704 0.000000 33.147579
Head 34.503728 59.394664 -19.421383
613
root 19.893600 34.675364 -10.395984 -5.118195 10.066055 -7.972497
RightUpLeg 14.978882 0.542208 29.068805
RightLeg -7.144312 -0.000000 0.000000
RightFoot -8.688309 -10.093484 4.112754
RightToeBase 6.220967 -0.000000 -0.000000
LeftUpLeg -21.297371 -22.250853 -3.245762
LeftLeg 11.236265 -0.000000 -0.000000
LeftFoot 12.955352 9.547024 -8.770115
LeftToeBase 11.917573 -0.000000 -0.000000
Spine 20.382476 2.494699 -47.499063
RightShoulder -10.373369 4.877312 -47.006860
RightArm 61.183639 67.468918 10.543787
RightForeArm -17.297023 -0.000000 24.884796
RightHand 21.277477 0.000000 -48.523204
RightHandThumb1 -24.326973 -0.000000 -32.862282
LeftShoulder -4.494221 35.960547 1.556064
LeftArm 37.098615 -11.346079 -61.737472
LeftForeArm 33.812492 -0.000000 9.649033
LeftHand -19.231628 -0.000000 -9.956624
LeftHandThumb1 -26.253704 0.000000 33.147579
Head 34.379231 59.296748 -19.553474
